<svg width="185" height="191" viewBox="0 0 185 191" fill="none" xmlns="http://www.w3.org/2000/svg">
<path d="M106.344 101.704C106.646 101.472 106.608 101.351 106.228 101.359C82.5091 101.544 58.8211 102.225 35.1253 102.337C34.862 102.337 34.6065 102.249 34.3974 102.081L0.33274 74.4804C-0.170602 74.0717 -0.100907 73.8713 0.534079 73.8713L184.378 74.4083C184.587 74.4083 184.61 74.4724 184.44 74.6086C135.623 112.611 86.7992 150.613 37.9672 188.624C37.1232 189.281 36.2791 189.898 35.435 190.483C35.0788 190.724 34.9627 190.635 35.0943 190.211L47.7553 147.648C47.8405 147.352 48.0186 147.087 48.2587 146.903L106.344 101.704Z" fill="white"/>
<path d="M73.985 65.4824C73.5907 65.4904 73.3124 65.0974 73.4284 64.7043L92.4985 0.687903C92.5449 0.527481 92.7072 0.439247 92.8618 0.479352C92.97 0.503415 93.0396 0.583627 93.0628 0.711965C93.6503 3.59956 94.9025 6.78394 95.4978 8.74911C101.102 27.318 106.784 45.8547 112.527 64.3594C112.62 64.6562 112.411 64.969 112.11 64.969L73.985 65.4824Z" fill="#FBAD15"/>
<path d="M118.099 165.45C115.347 163.337 115.151 161.979 113.943 158.179C112.421 153.399 111.041 148.691 109.81 144.04C109.63 143.341 109.888 142.601 110.469 142.184L130.341 127.803C130.639 127.586 131.062 127.723 131.172 128.076L150.895 189.929C151.138 190.676 150.95 190.813 150.331 190.339C139.705 182.088 128.961 173.797 118.099 165.45Z" fill="#FBAD15"/>
</svg>
