<svg width="259" height="91" viewBox="0 0 259 91" fill="none" xmlns="http://www.w3.org/2000/svg">
<path d="M47.5267 47.2585C47.6233 47.1872 47.6109 47.1503 47.4896 47.1527C39.9056 47.2093 32.3314 47.4184 24.7549 47.4528C24.6707 47.4528 24.589 47.4257 24.5221 47.3741L13.6302 38.9037C13.4692 38.7783 13.4915 38.7168 13.6945 38.7168L72.4774 38.8816C72.5443 38.8816 72.5517 38.9013 72.4972 38.9431C56.8885 50.6058 41.2773 62.2686 25.6636 73.9338C25.3937 74.1355 25.1238 74.3249 24.8539 74.5044C24.74 74.5782 24.7029 74.5511 24.745 74.4208L28.7932 61.3586C28.8205 61.2676 28.8774 61.1864 28.9542 61.1299L47.5267 47.2585Z" fill="white"/>
<path d="M37.155 36.1844C37.0288 36.1869 36.9396 36.0664 36.9768 35.9458L43.0851 16.3169C43.0999 16.2677 43.1519 16.2407 43.2014 16.253C43.2361 16.2603 43.2584 16.2849 43.2658 16.3243C43.454 17.2097 43.8551 18.1861 44.0458 18.7887C45.8409 24.4823 47.6607 30.1661 49.5004 35.8401C49.5301 35.9311 49.4633 36.027 49.3667 36.027L37.155 36.1844Z" fill="white"/>
<path d="M114.837 34.2365C115.763 28.2035 122.998 26.8212 127.884 27.8911C132.325 28.8626 135.143 31.7082 135.222 36.4107C135.225 36.4845 135.165 36.5484 135.091 36.5533L130.882 36.8657C130.78 36.8731 130.694 36.7944 130.691 36.6935C130.622 31.7943 125.705 31.1819 121.968 32.1115C119.988 32.6059 118.286 34.9203 119.854 36.7968C120.686 37.7929 123.073 38.3635 124.311 38.6414C129.144 39.7211 135.802 40.8918 135.987 47.284C136.067 49.9574 135.014 52.1315 132.833 53.8015C130.028 55.9511 126.007 56.3175 122.516 55.7691C117.271 54.9427 113.874 51.6741 113.689 46.1108C113.686 46.0321 113.746 45.9657 113.822 45.9583L117.935 45.6091C118.076 45.5992 118.197 45.7074 118.2 45.8476C118.289 51.1355 123.917 52.439 128.069 51.3765C129.802 50.9313 131.367 49.8639 131.456 47.9431C131.558 45.7763 129.622 44.8147 127.844 44.3375C122.709 42.9553 113.654 41.9494 114.837 34.2365Z" fill="white"/>
<path d="M89.8795 49.7631L97.9934 28.0436C98.0058 28.0116 98.0355 27.9895 98.0726 27.9895H102.72C102.78 27.9895 102.822 28.0485 102.799 28.1026L91.9915 55.4813C91.9792 55.5133 91.9494 55.5354 91.9148 55.5354H87.6486C87.614 55.5354 87.5842 55.5133 87.5719 55.4813L76.8879 28.1026C76.8656 28.0485 76.9077 27.9895 76.9671 27.9895H81.8275C81.8622 27.9895 81.8944 28.0116 81.9068 28.0461L89.7235 49.7631C89.7483 49.8369 89.8523 49.8369 89.8795 49.7631Z" fill="white"/>
<path d="M109.759 27.9895H105.253C105.216 27.9895 105.186 28.0192 105.186 28.0559V55.469C105.186 55.5057 105.216 55.5354 105.253 55.5354H109.759C109.796 55.5354 109.826 55.5057 109.826 55.469V28.0559C109.826 28.0192 109.796 27.9895 109.759 27.9895Z" fill="white"/>
<path d="M141.405 55.5354H136.619C136.564 55.5354 136.527 55.4813 136.547 55.4322L147.127 28.0412C147.139 28.0116 147.167 27.992 147.199 27.992L151.643 27.9895C151.675 27.9895 151.703 28.0092 151.715 28.0362L163.008 55.4297C163.03 55.4813 162.993 55.5354 162.939 55.5354H157.85C157.818 55.5354 157.791 55.5158 157.779 55.4863L154.723 47.5914C154.711 47.5619 154.684 47.5422 154.651 47.5422H144.431C144.398 47.5422 144.369 47.5619 144.359 47.5914L141.477 55.4863C141.467 55.5158 141.437 55.5354 141.405 55.5354ZM149.378 33.7274C148.328 36.9714 147.157 40.1761 145.867 43.3365C145.822 43.4398 145.901 43.5554 146.015 43.5554L153.032 43.5407C153.097 43.5407 153.139 43.4767 153.116 43.4177C152.742 42.4364 149.645 33.8283 149.405 33.7151C149.392 33.7102 149.38 33.7151 149.378 33.7274Z" fill="white"/>
<path d="M164.422 55.3731L164.424 28.1715C164.424 28.0952 164.486 28.0313 164.563 28.0288C168.284 27.9304 171.976 27.9476 175.643 28.078C177.433 28.1444 178.803 28.3264 179.753 28.6265C186.664 30.8178 188.095 38.3143 187.327 44.5933C186.458 51.7134 182.106 55.5083 174.883 55.5305C171.429 55.5403 167.995 55.5403 164.58 55.5305C164.494 55.5305 164.422 55.4592 164.422 55.3731ZM169.104 47.4684C169.114 48.4645 169.02 49.9106 169.097 51.1453C169.102 51.2141 169.156 51.2682 169.225 51.2707C172.006 51.3346 175.948 51.6347 178.496 50.7026C183.066 49.035 183.128 41.8583 182.465 38.1839C181.9 35.053 179.696 32.5419 176.361 32.3943C173.962 32.2861 171.58 32.2566 169.215 32.3083C169.144 32.3107 169.087 32.3673 169.087 32.4386C169.045 37.5863 169.052 42.5962 169.104 47.4684Z" fill="white"/>
<path d="M196.415 27.9919H192.042C191.967 27.9919 191.906 28.0525 191.906 28.1272V55.3977C191.906 55.4724 191.967 55.533 192.042 55.533H196.415C196.49 55.533 196.551 55.4724 196.551 55.3977V28.1272C196.551 28.0525 196.49 27.9919 196.415 27.9919Z" fill="white"/>
<path d="M219.204 51.4404L219.206 55.3879C219.206 55.469 219.139 55.5354 219.058 55.5354H201.589C201.508 55.5354 201.441 55.469 201.441 55.3879V28.1395C201.441 28.0584 201.508 27.992 201.589 27.992L205.935 27.9895C206.017 27.9895 206.083 28.0559 206.083 28.1371V51.1453C206.083 51.2265 206.15 51.2929 206.232 51.2929H219.055C219.137 51.2929 219.204 51.3593 219.204 51.4404Z" fill="white"/>
<path d="M51.3181 66.9253C50.449 66.2785 50.3871 65.8628 50.0058 64.6995C49.5255 63.2361 49.0897 61.7949 48.701 60.3709C48.644 60.1569 48.7257 59.9306 48.909 59.8027L55.1832 55.4003C55.2773 55.3339 55.411 55.3757 55.4456 55.4839L61.6728 74.4193C61.7495 74.648 61.6901 74.6898 61.4945 74.5447C58.1395 72.0189 54.7474 69.4807 51.3181 66.9253Z" fill="white"/>
<path d="M85.4399 66.8907V60.0386C85.4399 59.9624 85.5018 59.9009 85.5786 59.9009H86.1728C86.2496 59.9009 86.3115 59.9624 86.3115 60.0386L86.2966 65.9118C86.2966 65.988 86.3585 66.0495 86.4353 66.0495H89.7432C89.82 66.0495 89.8819 66.111 89.8819 66.1873L89.8745 66.898C89.8745 66.9743 89.8126 67.0358 89.7358 67.0358L85.5786 67.0284C85.5018 67.0284 85.4399 66.9669 85.4399 66.8907Z" fill="white"/>
<path d="M108.175 59.8984H107.521C107.462 59.8984 107.415 59.9458 107.415 60.0042V66.9251C107.415 66.9835 107.462 67.0309 107.521 67.0309H108.175C108.233 67.0309 108.281 66.9835 108.281 66.9251V60.0042C108.281 59.9458 108.233 59.8984 108.175 59.8984Z" fill="white"/>
<path d="M118.148 61.2216L116.286 66.962C116.276 66.994 116.246 67.0161 116.212 67.0161L115.521 67.0186C115.486 67.0186 115.456 66.9964 115.446 66.9645L113.446 61.1355C113.433 61.1011 113.396 61.079 113.359 61.0839C113.32 61.0913 113.292 61.1232 113.292 61.1626L113.297 66.9325C113.297 66.9768 113.265 67.0112 113.221 67.0112L112.51 67.0432C112.465 67.0456 112.428 67.0112 112.428 66.9669V59.9796C112.428 59.9353 112.463 59.9009 112.507 59.9009L113.736 59.8984C113.77 59.8984 113.8 59.9206 113.81 59.9525L115.778 65.7397C115.803 65.811 115.905 65.811 115.929 65.7397L117.811 59.955C117.821 59.923 117.851 59.9009 117.885 59.9009H119.096C119.141 59.9009 119.175 59.9353 119.175 59.9796V66.9645C119.175 67.0087 119.138 67.0432 119.094 67.0432L118.39 67.0137C118.348 67.0137 118.314 66.9768 118.314 66.935L118.301 61.2438C118.301 61.2069 118.274 61.1724 118.234 61.1675C118.197 61.1601 118.16 61.1847 118.148 61.2216Z" fill="white"/>
<path d="M121.318 59.9043L120.778 59.8977C120.681 59.8966 120.602 59.9738 120.6 60.0702L120.593 60.6998C120.591 60.7962 120.669 60.8754 120.766 60.8765L121.306 60.8831C121.403 60.8843 121.483 60.807 121.484 60.7106L121.492 60.081C121.493 59.9846 121.415 59.9055 121.318 59.9043Z" fill="white"/>
<path d="M140.566 60.0042L139.957 60.0126C139.886 60.0136 139.829 60.0717 139.83 60.1423L139.84 60.8702C139.841 60.9408 139.9 60.9973 139.971 60.9963L140.58 60.9879C140.651 60.9869 140.708 60.9288 140.707 60.8582L140.696 60.1303C140.695 60.0596 140.637 60.0032 140.566 60.0042Z" fill="white"/>
<path d="M159.977 66.4079C159.898 66.3415 159.779 66.3415 159.7 66.4079C157.048 68.6116 153.557 65.2593 157.12 63.1393C157.177 63.1048 157.194 63.0286 157.155 62.9745C156.55 62.153 156.058 61.2356 157.023 60.4412C158.868 58.9213 161.371 61.58 158.588 63.1589C158.536 63.1884 158.524 63.2549 158.561 63.3016L159.589 64.5977C159.749 64.8018 159.878 64.7822 159.972 64.5387L160.185 63.9878C160.215 63.9115 160.292 63.8697 160.371 63.8845L160.965 64.005C161.052 64.0222 161.099 64.1157 161.059 64.1944L160.411 65.5102C160.381 65.5717 160.396 65.643 160.448 65.6873L161.371 66.4448C161.426 66.489 161.428 66.5727 161.379 66.6219L160.958 67.0375C160.896 67.0965 160.799 67.1014 160.732 67.0449L159.977 66.4079ZM158.786 62.126C159.683 60.4412 157.209 60.306 157.363 61.6316C157.405 62.0054 157.541 62.2612 157.769 62.4014C158.207 62.6695 158.546 62.5785 158.786 62.126ZM156.952 64.0911C155.439 65.948 157.922 67.2662 159.197 65.7192C159.244 65.6651 159.244 65.5864 159.2 65.5298L158.083 64.1009C157.709 63.6262 157.333 63.6213 156.952 64.0911Z" fill="white"/>
<path d="M167.923 66.0463L170.188 60.0624C170.201 60.0304 170.23 60.0107 170.263 60.0107H171.065C171.119 60.0107 171.159 60.0673 171.137 60.119L168.309 67.0817C168.297 67.1112 168.267 67.1309 168.235 67.1309H167.234C167.2 67.1309 167.17 67.1112 167.158 67.0792L164.64 60.1165C164.622 60.0648 164.659 60.0107 164.714 60.0107H165.566C165.6 60.0107 165.63 60.0329 165.642 60.0624L167.774 66.0438C167.799 66.1151 167.896 66.1151 167.923 66.0463Z" fill="white"/>
<path d="M172.311 60.0125L171.761 60.0144C171.665 60.0147 171.588 60.092 171.588 60.1871L171.591 60.8168C171.591 60.9119 171.669 60.9887 171.765 60.9883L172.314 60.9864C172.41 60.9861 172.487 60.9086 172.487 60.8136L172.485 60.1839C172.484 60.0889 172.407 60.0122 172.311 60.0125Z" fill="white"/>
<path d="M191.145 64.3223C189.944 63.8378 186.743 63.7099 187.122 61.6415C187.55 59.3075 191.856 59.455 192.215 62.0497C192.227 62.1432 192.153 62.2244 192.059 62.2219L191.514 62.2072C191.425 62.2047 191.348 62.1432 191.328 62.0571C190.92 60.4265 187.711 60.7413 187.981 62.1235C188.043 62.4383 188.229 62.6376 188.538 62.7187C189.949 63.0901 192.916 63.3459 192.294 65.5446C191.588 68.0508 187.198 67.5614 186.83 64.8486C186.817 64.7625 186.887 64.6838 186.976 64.6838L187.54 64.6814C187.627 64.6814 187.699 64.7453 187.711 64.8314C187.929 66.4202 190.784 66.6317 191.507 65.3503C191.777 64.8707 191.658 64.5289 191.145 64.3223Z" fill="white"/>
<path d="M208.13 60.014L207.551 60.003C207.454 60.0011 207.373 60.0778 207.372 60.1742L207.359 60.8086C207.357 60.905 207.435 60.9847 207.532 60.9866L208.111 60.9976C208.208 60.9995 208.288 60.9228 208.29 60.8264L208.302 60.192C208.304 60.0955 208.227 60.0159 208.13 60.014Z" fill="white"/>
<path d="M138.241 61.8686H138.86C138.929 61.8686 138.984 61.9227 138.984 61.9916V62.4515C138.984 62.5376 138.914 62.6065 138.828 62.6065H138.278C138.191 62.6065 138.119 62.6753 138.119 62.7614C138.119 63.7845 138.117 64.8003 138.11 65.8087C138.107 66.2588 138.357 66.4186 138.857 66.2907C138.939 66.2711 139.021 66.3252 139.031 66.4088L139.085 66.8121C139.097 66.8958 139.043 66.9745 138.959 66.9966C138.325 67.1614 137.802 67.0163 137.389 66.5637C137.327 66.4949 137.295 66.4088 137.292 66.3178L137.235 62.7221C137.233 62.6581 137.181 62.6065 137.117 62.6065H136.785C136.701 62.6065 136.631 62.5376 136.631 62.454V62.0211C136.631 61.9375 136.701 61.8686 136.787 61.8686H137.094C137.181 61.8686 137.25 61.7998 137.25 61.7161V60.752C137.25 60.6635 137.297 60.5823 137.377 60.5381L137.963 60.2134C138.033 60.1765 138.117 60.2257 138.117 60.3044V61.7457C138.117 61.8145 138.171 61.8686 138.241 61.8686Z" fill="white"/>
<path d="M91.4565 64.8445C91.6224 65.9488 92.8382 66.7506 93.888 66.121C94.2891 65.88 94.4203 65.3413 95.126 65.5873C95.23 65.6242 95.2721 65.7471 95.2126 65.8381C93.4968 68.519 89.5475 66.4678 90.8351 63.3295C91.8676 60.8159 95.5494 61.7481 95.2622 64.4264C95.2523 64.51 95.1805 64.574 95.0963 64.574H91.6918C91.5457 64.574 91.4367 64.7019 91.4565 64.8445ZM94.398 63.7083C94.398 62.1981 92.2489 62.3924 91.5581 63.4402C91.3823 63.7058 91.4541 63.8386 91.7735 63.8386L94.2693 63.8361C94.3411 63.8361 94.398 63.7796 94.398 63.7083Z" fill="white"/>
<path d="M99.6596 66.3645C99.6497 66.2562 99.6101 66.2439 99.5433 66.33C98.4662 67.6729 96.6463 66.9695 96.2106 65.4348C95.6312 63.4008 97.3941 60.4003 99.5705 62.5056C99.7067 62.6359 99.7587 62.6089 99.7315 62.4244L99.677 62.0727C99.6646 61.9792 99.7315 61.8956 99.8255 61.8907L100.311 61.8636C100.4 61.8587 100.477 61.93 100.477 62.021C100.484 63.5705 100.487 65.1175 100.479 66.6645C100.477 67.3507 100.37 68.0221 99.7909 68.4673C98.7212 69.2961 96.3715 69.2887 96.1833 67.4909C96.1759 67.4146 96.2205 67.3409 96.2948 67.3163C96.8023 67.1416 97.0945 67.2917 97.1663 67.7713C97.1787 67.8475 97.2208 67.9164 97.2852 67.9582C98.6866 68.9026 99.8082 67.8524 99.6596 66.3645ZM98.3028 66.3325C99.0827 66.3276 99.7116 65.484 99.7067 64.4486C99.7017 63.4131 99.0629 62.5744 98.283 62.5794C97.503 62.5843 96.8741 63.4279 96.8791 64.4633C96.884 65.4987 97.5229 66.3374 98.3028 66.3325Z" fill="white"/>
<path d="M105.191 66.3965C102.042 68.5141 100.209 64.6355 103.077 64.0231C103.673 63.8952 104.282 63.7944 104.899 63.7206C105.124 63.6935 105.28 63.482 105.238 63.2607C105.08 62.3974 103.624 62.513 103.049 62.7835C102.97 62.8204 102.903 62.8844 102.864 62.9631C102.668 63.3541 102.344 63.4648 101.893 63.2951C101.824 63.268 101.791 63.1869 101.824 63.1205C102.502 61.7309 104.116 61.6054 105.426 62.1391C105.842 62.3088 106.048 62.6187 106.045 63.0639C106.035 64.2346 105.944 65.7029 106.278 66.8711C106.305 66.9646 106.231 67.0531 106.134 67.0458L105.543 66.9941C105.451 66.9867 105.379 66.9105 105.377 66.8195L105.362 66.4825C105.357 66.3522 105.3 66.3227 105.191 66.3965ZM102.579 65.816C102.779 66.2268 103.109 66.4063 103.567 66.3497C104.773 66.2022 105.32 65.5873 105.211 64.5027C105.203 64.4289 105.129 64.3773 105.055 64.392L102.973 64.82C102.891 64.8372 102.817 64.8814 102.765 64.9454C102.509 65.2528 102.448 65.543 102.579 65.816Z" fill="white"/>
<path d="M121.354 61.8815L120.72 61.8804C120.653 61.8803 120.599 61.9342 120.598 62.0007L120.59 66.9049C120.59 66.9715 120.644 67.0255 120.711 67.0256L121.345 67.0267C121.412 67.0268 121.466 66.973 121.466 66.9064L121.475 62.0023C121.475 61.9357 121.421 61.8817 121.354 61.8815Z" fill="white"/>
<path d="M123.434 67.4073C124.35 69.1854 126.257 68.2066 126.118 66.3915C126.111 66.2956 126.076 66.2857 126.012 66.3571C125.556 66.876 124.967 67.1343 124.266 66.9941C120.832 66.3054 122.993 59.6649 126.004 62.5006C126.133 62.6211 126.187 62.5941 126.165 62.4195L126.116 62.0407C126.106 61.962 126.165 61.8931 126.242 61.8907L126.767 61.871C126.858 61.8661 126.935 61.9423 126.933 62.0333C126.906 63.6394 126.898 65.2454 126.906 66.849C126.92 69.6823 122.649 69.6011 122.647 67.4392C122.647 67.3507 122.719 67.2794 122.808 67.2794H123.224C123.313 67.2794 123.395 67.3285 123.434 67.4073ZM124.748 66.3349C125.526 66.3325 126.153 65.4889 126.15 64.4486C126.148 63.4106 125.514 62.5695 124.735 62.572C123.957 62.5744 123.33 63.418 123.333 64.4583C123.335 65.4963 123.969 66.3374 124.748 66.3349Z" fill="white"/>
<path d="M129.079 62.4194C129.077 62.626 129.134 62.6432 129.245 62.4686C129.644 61.8463 130.204 61.6914 130.924 62.0038C130.991 62.0333 131.026 62.1071 131.001 62.1759L130.847 62.626C130.823 62.7022 130.741 62.7416 130.664 62.717L130.387 62.6211C130.315 62.5965 130.243 62.5916 130.169 62.6039C128.772 62.8326 129.181 65.8381 129.238 66.8341C129.243 66.9227 129.176 66.9965 129.087 67.0014L128.495 67.0432C128.403 67.0481 128.324 66.9743 128.324 66.8833L128.342 62.0185C128.342 61.9349 128.411 61.8685 128.495 61.8685H128.956C129.025 61.8685 129.079 61.9226 129.079 61.9915V62.4194Z" fill="white"/>
<path d="M131.555 63.2779C131.503 63.2558 131.481 63.1968 131.508 63.1476C132.241 61.7506 133.766 61.5809 135.138 62.1392C135.554 62.3089 135.76 62.6163 135.757 63.0615C135.752 63.7428 135.626 66.126 135.938 66.6892C136.002 66.8048 135.943 66.9524 135.814 66.9892C135.274 67.1516 135.032 66.9843 135.084 66.4851C135.108 66.2563 135.032 66.217 134.853 66.3645C134.155 66.9499 133.402 67.1491 132.598 66.9646C131.483 66.7113 130.954 65.4964 131.716 64.606C132.325 63.8928 133.682 63.8338 134.598 63.7231C134.838 63.6936 134.999 63.4648 134.942 63.2312C134.744 62.4024 133.34 62.513 132.766 62.7786C132.684 62.8155 132.617 62.8795 132.578 62.9582C132.372 63.3689 132.031 63.4747 131.555 63.2779ZM132.412 64.9774C131.471 66.3621 133.811 66.672 134.633 65.7275C134.942 65.3758 134.915 64.943 134.942 64.4954C134.947 64.4216 134.878 64.3625 134.804 64.3798L132.627 64.8348C132.541 64.8544 132.464 64.9036 132.412 64.9774Z" fill="white"/>
<path d="M140.588 61.866H139.979C139.908 61.866 139.85 61.9232 139.85 61.9939V66.9029C139.85 66.9736 139.908 67.0308 139.979 67.0308H140.588C140.659 67.0308 140.717 66.9736 140.717 66.9029V61.9939C140.717 61.9232 140.659 61.866 140.588 61.866Z" fill="white"/>
<path d="M146.451 64.8386C146.471 66.0129 145.53 66.9794 144.349 67.0004L143.973 67.0069C142.792 67.0262 141.818 66.0916 141.797 64.9193L141.782 64.0636C141.761 62.8893 142.702 61.9228 143.883 61.9018L144.259 61.8953C145.441 61.8761 146.414 62.8106 146.436 63.9829L146.451 64.8386ZM144.105 66.3351C144.958 66.3375 145.651 65.4964 145.654 64.4562C145.656 63.4181 144.965 62.5745 144.112 62.5721C143.259 62.5696 142.566 63.4108 142.564 64.4509C142.561 65.489 143.252 66.3326 144.105 66.3351Z" fill="white"/>
<path d="M148.533 62.4759C148.59 62.4464 148.64 62.4022 148.679 62.3456C148.729 62.2718 148.793 62.2128 148.872 62.171C149.709 61.7209 150.509 61.7627 151.272 62.2989C151.569 62.5055 151.717 62.7883 151.72 63.1498L151.742 66.8784C151.742 66.9669 151.67 67.0382 151.581 67.0358L151.039 67.0235C150.952 67.021 150.885 66.9497 150.89 66.8636C151.009 65.0658 150.997 63.8754 150.853 63.2949C150.554 62.0849 148.548 62.471 148.474 63.9442C148.427 64.9108 148.432 65.8798 148.491 66.8489C148.496 66.9349 148.429 67.0087 148.34 67.0137L147.748 67.0407C147.659 67.0432 147.587 66.9743 147.587 66.8858V62.0554C147.587 61.9644 147.659 61.8906 147.751 61.8857L148.231 61.8611C148.32 61.8562 148.395 61.9275 148.395 62.016L148.392 62.3899C148.392 62.4636 148.469 62.5104 148.533 62.4759Z" fill="white"/>
<path d="M172.33 61.9839L171.74 61.9829C171.662 61.9828 171.599 62.0454 171.599 62.1229L171.59 66.9926C171.59 67.07 171.653 67.1329 171.731 67.133L172.32 67.134C172.398 67.1342 172.462 67.0715 172.462 66.9941L172.47 62.1244C172.471 62.0469 172.407 61.9841 172.33 61.9839Z" fill="white"/>
<path d="M174.479 63.5648C174.581 63.7222 174.744 63.8329 174.93 63.8648C175.953 64.0542 178.382 64.4944 177.579 66.1423C176.841 67.6573 173.786 67.4483 173.469 65.675C173.454 65.5864 173.511 65.5053 173.6 65.4881C174.083 65.3922 174.341 65.4832 174.373 65.7611C174.38 65.8398 174.417 65.9111 174.474 65.9652C175.088 66.5407 177.146 66.6809 176.837 65.461C176.817 65.3872 176.762 65.3257 176.69 65.2987C175.856 64.979 174.432 64.7724 173.9 64.2583C173.291 63.6681 173.516 62.7335 174.232 62.3055C175.168 61.7472 177.151 61.8505 177.463 63.2106C177.48 63.2844 177.448 63.3606 177.381 63.3975C177.072 63.5697 176.814 63.523 176.609 63.2598C176.118 62.6376 175.49 62.5146 174.72 62.8958C174.38 63.063 174.301 63.2869 174.479 63.5648Z" fill="white"/>
<path d="M182.058 66.5088C181.06 67.2196 178.572 67.6402 178.564 65.7415C178.557 63.7886 180.667 64.1674 181.976 63.7149C182.048 63.6903 182.095 63.6239 182.098 63.5501C182.123 62.4507 180.478 62.6229 179.892 62.9155C179.812 62.9549 179.748 63.0188 179.708 63.0975C179.52 63.4689 179.206 63.5722 178.765 63.4074C178.691 63.3804 178.656 63.2968 178.688 63.2254C179.327 61.8383 181.187 61.6686 182.447 62.3351C182.791 62.5171 182.952 62.8024 182.932 63.1885C182.865 64.465 182.92 65.7316 183.093 66.9909C183.105 67.0843 183.029 67.1655 182.935 67.1556L182.41 67.1015C182.321 67.0942 182.251 67.0204 182.246 66.9318L182.229 66.59C182.222 66.4596 182.165 66.4326 182.058 66.5088ZM179.567 65.0872C178.636 66.467 181.172 66.9786 181.949 65.5718C182.095 65.3037 182.048 64.92 182.093 64.6052C182.103 64.5314 182.038 64.4699 181.964 64.4847L179.783 64.9446C179.694 64.9618 179.617 65.0135 179.567 65.0872Z" fill="white"/>
<path d="M196.758 66.0595C197.122 65.8258 197.182 65.3462 197.863 65.5922C197.93 65.6168 197.964 65.6905 197.939 65.7545C197.372 67.2523 195.248 67.3433 194.196 66.4825C192.76 65.3069 193.235 62.4219 195.045 61.9595C196.766 61.5193 198.103 62.6531 198.041 64.4387C198.039 64.5125 197.977 64.5715 197.902 64.5715L194.384 64.5739C194.292 64.5739 194.218 64.6551 194.228 64.7461C194.357 65.998 195.619 66.7875 196.758 66.0595ZM194.391 63.8287L197.095 63.8386C197.184 63.8386 197.246 63.7525 197.219 63.6689C196.734 62.2325 194.763 62.203 194.253 63.632C194.218 63.7279 194.29 63.8287 194.391 63.8287Z" fill="white"/>
<path d="M200.034 62.5465L200.383 62.1923C200.445 62.1309 200.519 62.0841 200.604 62.0546C200.963 61.9341 201.324 61.9415 201.691 62.0817C201.757 62.1087 201.834 62.1063 201.901 62.0768C202.156 61.9612 202.424 61.9366 202.703 61.9981C202.778 62.0153 202.837 62.0694 202.862 62.1407L204.162 65.9037C204.214 66.0488 204.263 66.0488 204.315 65.9037L205.672 62.1259C205.699 62.0522 205.769 62.0005 205.85 61.9956L206.4 61.9735C206.489 61.9685 206.554 62.0546 206.524 62.1382L204.719 66.9981C204.687 67.0867 204.6 67.1457 204.503 67.1408L203.949 67.1137C203.872 67.1113 203.805 67.0621 203.78 66.9908C203.196 65.4044 202.062 62.2415 201.906 62.2219C201.839 62.2145 201.775 62.2563 201.76 62.3227L201.661 62.7408C201.641 62.8269 201.542 62.8736 201.463 62.8318C201.121 62.6547 200.802 62.667 200.505 62.8712C200.17 63.0999 200.004 63.4147 200.007 63.8156V66.9612C200.007 67.0424 199.945 67.1088 199.863 67.1137L199.296 67.1531C199.205 67.158 199.125 67.0842 199.125 66.9932L199.143 62.1284C199.143 62.0448 199.212 61.9784 199.296 61.9784H199.757C199.826 61.9784 199.881 62.0325 199.881 62.1013V62.4826C199.881 62.6277 199.933 62.6498 200.034 62.5465Z" fill="white"/>
<path d="M208.126 61.9758H207.541C207.446 61.9758 207.368 62.0529 207.368 62.148V66.9685C207.368 67.0636 207.446 67.1407 207.541 67.1407H208.126C208.222 67.1407 208.299 67.0636 208.299 66.9685V62.148C208.299 62.0529 208.222 61.9758 208.126 61.9758Z" fill="white"/>
<path d="M213.543 65.3772C212.887 68.5352 208.648 67.2612 209.47 63.6728C209.955 61.5626 212.884 61.3044 213.407 63.5007C213.429 63.5917 213.362 63.6777 213.268 63.6802L212.748 63.6974C212.654 63.6999 212.573 63.6384 212.545 63.5498C212.35 62.8661 211.904 62.598 211.208 62.7481C210.755 62.844 210.473 63.1145 210.356 63.5597C210.153 64.3467 210.092 65.601 210.753 66.1765C211.453 66.784 212.558 66.2921 212.657 65.333C212.667 65.242 212.743 65.1756 212.833 65.178L213.397 65.1928C213.494 65.1977 213.563 65.2838 213.543 65.3772Z" fill="white"/>
<path d="M215.279 66.7277C213.303 65.5644 214.286 61.3538 217.205 62.0498C218.146 62.2736 218.738 62.9672 218.981 64.1256C219.057 64.497 218.906 64.6839 218.523 64.6839H215.291C215.21 64.6839 215.145 64.7528 215.15 64.8315C215.244 66.4572 217.089 66.9712 218.109 65.7366C218.161 65.6726 218.243 65.6431 218.324 65.6529L218.802 65.7218C218.911 65.7366 218.966 65.862 218.899 65.9505C217.891 67.2958 216.685 67.5566 215.279 66.7277ZM218.121 63.8108C217.859 62.2392 215.834 62.4827 215.168 63.6509C215.091 63.7837 215.19 63.9485 215.343 63.9485L218.01 63.9436C218.079 63.9411 218.134 63.8797 218.121 63.8108Z" fill="white"/>
</svg>
