<svg width="39" height="31" viewBox="0 0 39 31" fill="none" xmlns="http://www.w3.org/2000/svg">
<path d="M35.75 0H3.25C1.45573 0 0 1.45573 0 3.25V27.0833C0 28.8776 1.45573 30.3333 3.25 30.3333H35.75C37.5443 30.3333 39 28.8776 39 27.0833V3.25C39 1.45573 37.5443 0 35.75 0ZM35.75 27.0833H3.25V3.25H35.75V27.0833ZM14.0833 15.1667C16.4734 15.1667 18.4167 13.2234 18.4167 10.8333C18.4167 8.44323 16.4734 6.5 14.0833 6.5C11.6932 6.5 9.75 8.44323 9.75 10.8333C9.75 13.2234 11.6932 15.1667 14.0833 15.1667ZM8.01667 23.8333H20.15C20.9896 23.8333 21.6667 23.251 21.6667 22.5333V21.2333C21.6667 19.0802 19.6286 17.3333 17.1167 17.3333C16.3854 17.3333 15.8505 17.875 14.0833 17.875C12.262 17.875 11.8219 17.3333 11.05 17.3333C8.53802 17.3333 6.5 19.0802 6.5 21.2333V22.5333C6.5 23.251 7.17708 23.8333 8.01667 23.8333ZM24.375 19.5H31.9583C32.2563 19.5 32.5 19.2562 32.5 18.9583V17.875C32.5 17.5771 32.2563 17.3333 31.9583 17.3333H24.375C24.0771 17.3333 23.8333 17.5771 23.8333 17.875V18.9583C23.8333 19.2562 24.0771 19.5 24.375 19.5ZM24.375 15.1667H31.9583C32.2563 15.1667 32.5 14.9229 32.5 14.625V13.5417C32.5 13.2437 32.2563 13 31.9583 13H24.375C24.0771 13 23.8333 13.2437 23.8333 13.5417V14.625C23.8333 14.9229 24.0771 15.1667 24.375 15.1667ZM24.375 10.8333H31.9583C32.2563 10.8333 32.5 10.5896 32.5 10.2917V9.20833C32.5 8.91042 32.2563 8.66667 31.9583 8.66667H24.375C24.0771 8.66667 23.8333 8.91042 23.8333 9.20833V10.2917C23.8333 10.5896 24.0771 10.8333 24.375 10.8333Z" fill="#0049AA"/>
</svg>
