<svg width="90" height="81" viewBox="0 0 90 81" fill="none" xmlns="http://www.w3.org/2000/svg">
<path d="M89.4946 38.0308C89.4946 34.384 87.4826 31.2342 84.5227 29.5243V5.93231C84.5227 4.58195 83.4382 0.99231 79.5508 0.99231C78.4445 0.99231 77.346 1.35961 76.4464 2.07568L63.2351 12.5745C56.5991 17.8433 48.2681 20.7462 39.7754 20.7462H9.94385C4.45143 20.7462 0 25.1676 0 30.6231V45.4385C0 50.8939 4.45143 55.3154 9.94385 55.3154H15.1799C14.9639 56.9327 14.8412 58.5779 14.8412 60.2538C14.8412 66.3914 16.2799 72.191 18.8125 77.3749C19.6189 79.0246 21.3793 80.0077 23.2251 80.0077H34.7662C38.8136 80.0077 41.2437 75.4026 38.7903 72.2049C36.2422 68.8838 34.7273 64.7417 34.7273 60.2538C34.7273 58.5393 34.979 56.8911 35.4125 55.3154H39.7754C48.2681 55.3154 56.5991 58.2183 63.2336 63.487L76.4449 73.9859C77.326 74.6862 78.4207 75.0682 79.5492 75.0692C83.4211 75.0692 84.5212 71.5537 84.5212 70.1308V46.5388C87.4826 44.8273 89.4946 41.6775 89.4946 38.0308ZM74.5789 59.8557L69.4438 55.7753C61.0537 49.1084 50.5148 45.4385 39.7754 45.4385V30.6231C50.5148 30.6231 61.0537 26.9532 69.4438 20.2863L74.5789 16.2059V59.8557Z" fill="#FBAD15"/>
</svg>
