<svg width="70" height="81" viewBox="0 0 70 81" fill="none" xmlns="http://www.w3.org/2000/svg">
<path d="M49.7394 50.471L34.883 65.1932L20.0266 50.471C8.89204 50.9494 0 59.9772 0 71.1191V72.6006C0 76.6901 3.34814 80.008 7.47492 80.008H62.291C66.4178 80.008 69.7659 76.6901 69.7659 72.6006V71.1191C69.7659 59.9772 60.8739 50.9494 49.7394 50.471ZM2.11789 13.3107L3.11455 13.5421V22.5545C2.02446 23.2026 1.24582 24.3292 1.24582 25.6872C1.24582 26.9835 1.96217 28.0637 2.9744 28.7273L0.545046 38.3414C0.28031 39.4063 0.872074 40.5019 1.72858 40.5019H8.23799C9.09449 40.5019 9.68625 39.4063 9.42152 38.3414L6.99217 28.7273C8.0044 28.0637 8.72074 26.9835 8.72074 25.6872C8.72074 24.3292 7.9421 23.2026 6.85201 22.5545V14.4372L17.13 16.8909C15.7908 19.5452 14.9498 22.5082 14.9498 25.6872C14.9498 36.5976 23.873 45.4402 34.883 45.4402C45.8929 45.4402 54.8161 36.5976 54.8161 25.6872C54.8161 22.5082 53.9907 19.5452 52.6359 16.8909L67.6325 13.3107C70.4667 12.6317 70.4667 9.12858 67.6325 8.44957L37.9819 1.35083C35.9575 0.872437 33.824 0.872437 31.7996 1.35083L2.11789 8.43414C-0.700774 9.11315 -0.700774 12.6317 2.11789 13.3107Z" fill="#FBAD15"/>
</svg>
