<svg width="44" height="34" viewBox="0 0 44 34" fill="none" xmlns="http://www.w3.org/2000/svg">
<path d="M21.2816 8.82049L7.28766 20.3461V32.7856C7.28766 33.1077 7.41561 33.4166 7.64336 33.6443C7.87111 33.8721 8.18 34 8.50209 34L17.0076 33.978C17.3286 33.9764 17.636 33.8477 17.8624 33.6202C18.0888 33.3926 18.2159 33.0846 18.2159 32.7636V25.4991C18.2159 25.177 18.3439 24.8681 18.5716 24.6403C18.7994 24.4126 19.1083 24.2846 19.4304 24.2846H24.288C24.6101 24.2846 24.919 24.4126 25.1468 24.6403C25.3745 24.8681 25.5025 25.177 25.5025 25.4991V32.7583C25.502 32.9181 25.533 33.0764 25.5938 33.2242C25.6546 33.3719 25.744 33.5063 25.8568 33.6194C25.9696 33.7326 26.1037 33.8224 26.2513 33.8837C26.3989 33.9449 26.5571 33.9765 26.7169 33.9765L35.2194 34C35.5414 34 35.8503 33.8721 36.0781 33.6443C36.3058 33.4166 36.4338 33.1077 36.4338 32.7856V20.3378L22.4429 8.82049C22.2784 8.68791 22.0735 8.61561 21.8622 8.61561C21.651 8.61561 21.4461 8.68791 21.2816 8.82049ZM43.3863 16.6543L37.041 11.4239V0.910816C37.041 0.669253 36.945 0.437583 36.7742 0.266772C36.6034 0.0959609 36.3717 0 36.1302 0H31.8797C31.6381 0 31.4065 0.0959609 31.2357 0.266772C31.0648 0.437583 30.9689 0.669253 30.9689 0.910816V6.42201L24.1734 0.83112C23.5213 0.294481 22.703 0.00107275 21.8584 0.00107275C21.0139 0.00107275 20.1956 0.294481 19.5435 0.83112L0.330549 16.6543C0.23832 16.7305 0.162014 16.8242 0.105993 16.9299C0.0499718 17.0356 0.0153326 17.1514 0.00405477 17.2705C-0.00722311 17.3896 0.00508134 17.5098 0.0402651 17.6241C0.0754488 17.7385 0.132822 17.8448 0.209107 17.937L2.14459 20.2899C2.22067 20.3825 2.31424 20.459 2.41996 20.5153C2.52568 20.5716 2.64146 20.6065 2.76068 20.618C2.87989 20.6295 3.00021 20.6174 3.11473 20.5823C3.22925 20.5472 3.33574 20.4899 3.42808 20.4137L21.2816 5.70854C21.4461 5.57596 21.651 5.50366 21.8622 5.50366C22.0735 5.50366 22.2784 5.57596 22.4429 5.70854L40.2972 20.4137C40.3893 20.4899 40.4957 20.5473 40.61 20.5825C40.7244 20.6177 40.8446 20.63 40.9637 20.6187C41.0828 20.6074 41.1985 20.5728 41.3043 20.5168C41.41 20.4608 41.5037 20.3845 41.5799 20.2922L43.5154 17.9393C43.5916 17.8466 43.6487 17.7397 43.6835 17.6248C43.7182 17.51 43.73 17.3894 43.718 17.27C43.706 17.1505 43.6705 17.0347 43.6136 16.929C43.5567 16.8234 43.4795 16.73 43.3863 16.6543Z" fill="#0049AA"/>
</svg>
