<svg width="35" height="35" viewBox="0 0 35 35" fill="none" xmlns="http://www.w3.org/2000/svg">
<path d="M2.1875 35H32.8125V30.6249H2.1875V35ZM28.4375 17.4998H23.8875C22.776 17.4998 21.875 16.5988 21.875 15.4873V14.8406C21.875 12.9696 22.482 11.1895 23.342 9.52764C23.9647 8.32382 24.2238 6.90329 23.9606 5.39732C23.4979 2.74631 21.3309 0.564256 18.6792 0.102825C14.5346 -0.618374 10.9375 2.55149 10.9375 6.56218C10.9375 7.53016 11.1508 8.44481 11.5315 9.26787C12.4428 11.2401 13.125 13.3093 13.125 15.4825V15.4873C13.125 16.5988 12.224 17.4998 11.1125 17.4998H6.5625C2.93809 17.4998 0 20.4379 0 24.0624V26.2499C0 27.4578 0.97959 28.4374 2.1875 28.4374H32.8125C34.0204 28.4374 35 27.4578 35 26.2499V24.0624C35 20.4379 32.0619 17.4998 28.4375 17.4998Z" fill="#0049AA"/>
</svg>
