<svg width="41" height="29" viewBox="0 0 41 29" fill="none" xmlns="http://www.w3.org/2000/svg">
<path d="M12.3 14.1625C16.1446 14.1625 19.2563 11.0508 19.2563 7.20625C19.2563 3.36168 16.1446 0.25 12.3 0.25C8.45543 0.25 5.34375 3.36168 5.34375 7.20625C5.34375 11.0508 8.45543 14.1625 12.3 14.1625ZM17.07 16.15H16.5545C15.2626 16.7711 13.8279 17.1438 12.3 17.1438C10.7721 17.1438 9.34359 16.7711 8.04551 16.15H7.53C3.57984 16.15 0.375 19.3548 0.375 23.305V25.0938C0.375 26.7396 1.71035 28.075 3.35625 28.075H21.2438C22.8897 28.075 24.225 26.7396 24.225 25.0938V23.305C24.225 19.3548 21.0202 16.15 17.07 16.15ZM30.1875 14.1625C33.4793 14.1625 36.15 11.4918 36.15 8.2C36.15 4.9082 33.4793 2.2375 30.1875 2.2375C26.8957 2.2375 24.225 4.9082 24.225 8.2C24.225 11.4918 26.8957 14.1625 30.1875 14.1625ZM33.1688 16.15H32.9327C32.0694 16.4481 31.1564 16.6469 30.1875 16.6469C29.2186 16.6469 28.3056 16.4481 27.4423 16.15H27.2063C25.9392 16.15 24.7716 16.5164 23.7468 17.1065C25.2622 18.74 26.2125 20.9076 26.2125 23.305V25.69C26.2125 25.8266 26.1814 25.9571 26.1752 26.0875H37.1438C38.7897 26.0875 40.125 24.7521 40.125 23.1063C40.125 19.2617 37.0133 16.15 33.1688 16.15Z" fill="#0049AA"/>
</svg>
