<svg width="34" height="39" viewBox="0 0 34 39" fill="none" xmlns="http://www.w3.org/2000/svg">
<path d="M9.83723 13.3572H12.8039C12.917 11.3058 13.3002 9.46008 13.8823 8.01356C11.7793 9.01838 10.2379 10.9878 9.83723 13.3572ZM9.83723 15.7857C10.2387 18.1551 11.7793 20.1245 13.8823 21.1294C13.2995 19.6828 12.917 17.8371 12.8039 15.7857H9.83723ZM17 21.7578C17.5836 21.1924 18.5763 19.1455 18.7782 15.7857H15.2211C15.4237 19.1448 16.4164 21.1924 17 21.7578ZM15.2218 13.3572H18.7789C18.5771 9.99816 17.5844 7.95057 17.0008 7.38517C16.4164 7.95057 15.4237 9.99816 15.2218 13.3572ZM20.1177 21.1294C22.2207 20.1245 23.7621 18.1551 24.1628 15.7857H21.1961C21.083 17.8371 20.7005 19.6828 20.1177 21.1294ZM31.5714 3.43323e-05H4.85714C2.17433 3.43323e-05 0 2.17436 0 4.85718V34C0 36.6828 2.17433 38.8572 4.85714 38.8572H31.5714C32.9125 38.8572 34 37.7696 34 36.4286V2.42861C34 1.08758 32.9125 3.43323e-05 31.5714 3.43323e-05ZM25.5 31.5715H8.5C7.83214 31.5715 7.28571 31.025 7.28571 30.3572C7.28571 29.6893 7.83214 29.1429 8.5 29.1429H25.5C26.1679 29.1429 26.7143 29.6893 26.7143 30.3572C26.7143 31.025 26.1679 31.5715 25.5 31.5715ZM17 24.2857C11.6351 24.2857 7.28571 19.9363 7.28571 14.5715C7.28571 9.2066 11.6351 4.85718 17 4.85718C22.3649 4.85718 26.7143 9.2066 26.7143 14.5715C26.7143 19.9363 22.3649 24.2857 17 24.2857ZM20.1177 8.01356C20.7005 9.46008 21.083 11.3058 21.1961 13.3572H24.1628C23.7621 10.9878 22.2207 9.01838 20.1177 8.01356Z" fill="#0049AA"/>
</svg>
