<svg width="40" height="40" viewBox="0 0 40 40" fill="none" xmlns="http://www.w3.org/2000/svg">
<path d="M31.9584 24.5834H24.5834C23.2313 24.5834 22.1251 23.4771 22.1251 22.1251C22.1251 20.773 23.2313 19.6667 24.5834 19.6667H31.9584C31.9584 19.6667 39.3334 11.4466 39.3334 7.37502C39.3334 3.30339 36.03 0 31.9584 0C27.8868 0 24.5834 3.30339 24.5834 7.37502C24.5834 9.33401 26.2889 12.2456 28.0635 14.75H24.5834C20.5195 14.75 17.2084 18.0611 17.2084 22.1251C17.2084 26.189 20.5195 29.5001 24.5834 29.5001H31.9584C33.3105 29.5001 34.4168 30.6063 34.4168 31.9584C34.4168 33.3105 33.3105 34.4168 31.9584 34.4168H14.2507C13.0215 36.322 11.6541 38.0812 10.617 39.3334H31.9584C36.0224 39.3334 39.3334 36.0224 39.3334 31.9584C39.3334 27.8945 36.0224 24.5834 31.9584 24.5834ZM31.9584 4.91668C33.3182 4.91668 34.4168 6.01525 34.4168 7.37502C34.4168 8.73479 33.3182 9.83336 31.9584 9.83336C30.5986 9.83336 29.5001 8.73479 29.5001 7.37502C29.5001 6.01525 30.5986 4.91668 31.9584 4.91668ZM7.37502 19.6667C3.30339 19.6667 0 22.9701 0 27.0417C0 31.1134 7.37502 39.3334 7.37502 39.3334C7.37502 39.3334 14.75 31.1134 14.75 27.0417C14.75 22.9701 11.4466 19.6667 7.37502 19.6667ZM7.37502 29.5001C6.01525 29.5001 4.91668 28.4015 4.91668 27.0417C4.91668 25.682 6.01525 24.5834 7.37502 24.5834C8.73479 24.5834 9.83336 25.682 9.83336 27.0417C9.83336 28.4015 8.73479 29.5001 7.37502 29.5001Z" fill="#0049AA"/>
</svg>
