<svg width="34" height="34" viewBox="0 0 34 34" fill="none" xmlns="http://www.w3.org/2000/svg">
<path d="M34.0009 23.9908V3.64295C34.0009 1.63098 32.3699 0 30.358 0H3.64295C1.63098 0 0 1.63098 0 3.64295V30.357C0 32.369 1.63098 34 3.64295 34H23.9917C24.9579 34 25.8845 33.6162 26.5677 32.933L32.9339 26.5668C33.6171 25.8836 34.0009 24.957 34.0009 23.9908ZM24.2864 30.0624V24.2855H30.0633L24.2864 30.0624ZM30.358 3.64295V20.6425H22.4649C21.4589 20.6425 20.6434 21.458 20.6434 22.464V30.357H3.64295V3.64295H30.358Z" fill="#0049AA"/>
</svg>
