<svg width="500" height="500" viewBox="0 0 500 500" fill="none" xmlns="http://www.w3.org/2000/svg">
<rect width="500" height="500" fill="url(#paint0_linear_255_2)"/>
<path d="M277.467 262.355C278.065 261.895 277.988 261.657 277.237 261.673C230.295 262.038 183.413 263.386 136.516 263.608C135.995 263.608 135.489 263.434 135.076 263.1L67.6576 208.476C66.6614 207.667 66.7993 207.271 68.056 207.271L431.905 208.334C432.319 208.334 432.365 208.46 432.027 208.73C335.414 283.941 238.785 359.153 142.141 434.38C140.47 435.681 138.8 436.902 137.129 438.06C136.424 438.535 136.194 438.361 136.455 437.52L161.513 353.284C161.681 352.697 162.034 352.174 162.509 351.809L277.467 262.355Z" fill="white"/>
<path d="M213.426 190.668C212.645 190.684 212.095 189.906 212.324 189.128L250.066 62.4318C250.158 62.1143 250.479 61.9397 250.785 62.0191C250.999 62.0667 251.137 62.2254 251.183 62.4794C252.346 68.1943 254.824 74.4966 256.002 78.3859C267.094 115.136 278.338 151.822 289.705 188.445C289.889 189.033 289.476 189.652 288.879 189.652L213.426 190.668Z" fill="white"/>
<path d="M300.732 388.515C295.284 384.333 294.896 381.646 292.506 374.126C289.495 364.665 286.764 355.348 284.327 346.142C283.97 344.758 284.482 343.296 285.631 342.469L324.96 314.008C325.55 313.579 326.388 313.849 326.605 314.549L365.64 436.962C366.121 438.441 365.748 438.711 364.522 437.773C343.492 421.444 322.228 405.035 300.732 388.515Z" fill="white"/>
<defs>
<linearGradient id="paint0_linear_255_2" x1="250" y1="0" x2="250" y2="500" gradientUnits="userSpaceOnUse">
<stop stop-color="#0049AA"/>
<stop offset="1" stop-color="#202E84"/>
</linearGradient>
</defs>
</svg>
